<svg width="581.84" height="602" viewBox="0 0 581.84 602" xmlns="http://www.w3.org/2000/svg" xmlns:xlink="http://www.w3.org/1999/xlink" overflow="hidden"><defs></defs><g><path d="M176.3 600.5C164.35 600.5 156.33 594.76 156.33 586.22L156.33 500.77C156.33 492.9 163.36 486.49 172.01 486.49L429.66 486.49C438.3 486.49 445.34 492.89 445.34 500.77L445.34 586.22C445.34 593.96 438.35 600.5 433.96 600.5L176.3 600.5Z" fill="#FFFFFF"/><path d="M429.65 488C437.47 488 443.83 493.73 443.83 500.78L443.83 586.23C443.83 593.48 437.24 599.01 433.95 599.01L176.3 599.01C165.25 599.01 157.83 593.88 157.83 586.23L157.83 500.78C157.83 493.74 164.19 488 172.01 488L429.65 488M429.65 485 172 485C162.55 485 154.82 492.1 154.82 500.78L154.82 586.23C154.82 594.91 162.55 602.01 176.29 602.01L433.94 602.01C439.09 602.01 446.82 594.91 446.82 586.23L446.82 500.78C446.83 492.1 439.1 485 429.65 485L429.65 485Z" fill="#333333"/></g><g><path d="M176.3 115.5C164.35 115.5 156.33 109.76 156.33 101.22L156.33 15.78C156.33 7.91 163.36 1.5 172.01 1.5L429.66 1.5C438.3 1.5 445.34 7.9 445.34 15.78L445.34 101.23C445.34 108.97 438.35 115.51 433.96 115.51L176.3 115.51Z" fill="#FFFFFF"/><path d="M429.65 3C437.47 3 443.83 8.73 443.83 15.78L443.83 101.23C443.83 108.48 437.24 114.01 433.95 114.01L176.3 114.01C165.25 114.01 157.83 108.88 157.83 101.23L157.83 15.78C157.83 8.73 164.19 3 172 3L429.65 3M429.65 0 172 0C162.55 0 154.82 7.1 154.82 15.78L154.82 101.23C154.82 109.91 162.55 117.01 176.29 117.01L433.94 117.01C439.09 117.01 446.82 109.91 446.82 101.23L446.82 15.78C446.83 7.1 439.1 0 429.65 0L429.65 0Z" fill="#333333"/></g><text transform="translate(204.55 45.3804)"><tspan font-family="Arial-BoldMT" font-size="42" x="0" y="0">Upstream</tspan><tspan font-family="Arial-BoldMT" font-size="42" x="-37.26" y="50.4">(GitHub Web)</tspan></text><text transform="translate(239.587 531.38)"><tspan font-family="Arial-BoldMT" font-size="42" x="0" y="0">Origin</tspan><tspan font-family="Arial-BoldMT" font-size="42" x="-42.01" y="50.4">(Local PC)</tspan></text><g><g><line x1="301.33" y1="127.5" x2="301.33" y2="213.44" stroke="#333333" stroke-width="5" stroke-linecap="round" stroke-linejoin="round" fill="none"/><g><path d="M293.38 198.66 295.73 197.8 301.33 213.19 306.93 197.8 309.28 198.66 301.33 220.5Z" fill="#333333"/></g></g></g><text font-family="Arial-BoldMT" font-size="42" transform="translate(315.418 184.38)">Fork</text><g><g><line x1="270.33" y1="373.5" x2="270.33" y2="459.44" stroke="#333333" stroke-width="5" stroke-linecap="round" stroke-linejoin="round" fill="none"/><g><path d="M262.38 444.66 264.73 443.8 270.33 459.19 275.93 443.8 278.28 444.66 270.33 466.5Z" fill="#333333"/></g></g></g><g><g><line x1="329.33" y1="463.5" x2="329.33" y2="377.56" stroke="#333333" stroke-width="5" stroke-linecap="round" stroke-linejoin="round" fill="none"/><g><path d="M337.28 392.34 334.93 393.2 329.33 377.81 323.73 393.2 321.38 392.34 329.33 370.5Z" fill="#333333"/></g></g></g><text font-family="Arial-BoldMT" font-size="42" transform="translate(166.418 428.38)">Pull</text><text font-family="Arial-BoldMT" font-size="42" transform="translate(348.418 428.38)">Push</text><g><g><path d="M121.83 56 62.83 56 62.83 543 126.53 543.85" stroke="#333333" stroke-width="4" stroke-linecap="round" stroke-linejoin="round" fill="none"/><g><path d="M102.71 556.26 101.4 552.48 126.13 543.84 101.64 534.56 103.05 530.82 137.83 544Z" fill="#333333"/></g></g></g><text font-family="Arial-BoldMT" font-size="42" transform="matrix(6.12323e-17 -1 1 6.12323e-17 36.0322 481.773)">Pull from upstream</text><g><g><path d="M465.83 297 513.83 297 513.83 58 477.13 58.76" stroke="#333333" stroke-width="4" stroke-linecap="round" stroke-linejoin="round" fill="none"/><g><path d="M500.5 45.55 501.95 49.28 477.52 58.76 502.32 67.2 501.03 70.99 465.83 59Z" fill="#333333"/></g></g></g><text font-family="Arial-BoldMT" font-size="42" transform="matrix(6.12323e-17 1 -1 6.12323e-17 545.81 53.0353)">Pull Request</text><g><path d="M177.3 353.5C165.35 353.5 157.33 347.76 157.33 339.22L157.33 253.77C157.33 245.9 164.36 239.49 173.01 239.49L430.66 239.49C439.3 239.49 446.34 245.89 446.34 253.77L446.34 339.22C446.34 346.96 439.35 353.5 434.96 353.5L177.3 353.5Z" fill="#FFFFFF"/><path d="M430.65 241C438.47 241 444.83 246.73 444.83 253.78L444.83 339.23C444.83 346.48 438.24 352.01 434.95 352.01L177.3 352.01C166.25 352.01 158.83 346.88 158.83 339.23L158.83 253.78C158.83 246.74 165.19 241 173.01 241L430.65 241M430.65 238 173 238C163.55 238 155.82 245.1 155.82 253.78L155.82 339.23C155.82 347.91 163.55 355.01 177.29 355.01L434.94 355.01C440.09 355.01 447.82 347.91 447.82 339.23L447.82 253.78C447.83 245.1 440.1 238 430.65 238L430.65 238Z" fill="#333333"/></g><text transform="translate(179.884 283.38)"><tspan font-family="Arial-BoldMT" font-size="42" x="0" y="0">My rep copy</tspan><tspan font-family="Arial-BoldMT" font-size="42" x="-11.6" y="50.4">(GitHub Web)</tspan></text></svg>